<svg width="133" height="116" viewBox="0 0 133 116" fill="none" xmlns="http://www.w3.org/2000/svg">
<path d="M81.9076 95.8007C76.2008 90.4404 68.7987 90.7872 62.3121 93.5766C55.8255 96.3659 49.8671 101.33 43.5471 104.86C38.2487 107.818 32.6888 109.761 27.061 110.625C19.0062 111.854 10.0111 110.352 4.39937 101.691C-1.8503 92.0406 -1.37031 74.6353 5.38648 65.7825C8.82534 61.2769 13.3278 59.065 17.2541 55.5425C21.1803 52.0199 24.8154 46.1818 24.481 39.392C24.1713 33.1114 20.572 28.2809 16.8469 25.2553C13.9682 22.9151 10.4232 20.3606 10.0765 15.5164C9.74089 10.8278 12.722 7.15507 15.5686 5.06611C24.8548 -1.74963 36.298 -1.6841 45.5522 5.23814C48.8528 7.70667 51.887 10.9903 55.348 12.9154C64.4356 17.9671 74.4499 12.8813 84.073 11.0217C92.2167 9.44746 100.569 10.2626 108.504 13.4069C113.269 15.2952 118.053 18.1856 121.401 23.5609C123.815 27.4385 125.32 32.3455 126.731 37.1924C128.237 42.3615 129.684 47.5667 131.073 52.8077C131.906 55.948 132.727 59.162 132.943 62.5275C133.333 68.6278 131.689 74.6572 129.451 79.8058C124.133 92.0269 115.182 100.622 105.488 102.806C95.795 104.991 85.5401 100.724 78.022 91.3934" fill="white" fill-opacity="0.77"/>
<path d="M89.9748 100.801C85.1691 95.4404 78.9357 95.7872 73.4734 98.5766C68.011 101.366 62.9933 106.33 57.6712 109.86C53.2095 112.818 48.5274 114.761 43.7882 115.625C37.0052 116.854 29.4304 115.352 24.7047 106.691C19.4419 97.0406 19.8461 79.6353 25.536 70.7825C28.4319 66.2769 32.2234 64.065 35.5297 60.5425C38.8361 57.0199 41.8971 51.1818 41.6156 44.392C41.3547 38.1114 38.3238 33.2809 35.1868 30.2553C32.7627 27.9151 29.7775 25.3606 29.4855 20.5164C29.2029 15.8278 31.7132 12.1551 34.1104 10.0661C41.9304 3.25037 51.5667 3.3159 59.3597 10.2381C62.1392 12.7067 64.6943 15.9903 67.6089 17.9154C75.2616 22.9671 83.6947 17.8813 91.7984 16.0217C98.6562 14.4475 105.69 15.2626 112.372 18.4069C116.385 20.2952 120.413 23.1856 123.232 28.5609C125.266 32.4385 126.532 37.3455 127.721 42.1924C128.989 47.3615 130.207 52.5667 131.377 57.8077C132.079 60.948 132.77 64.162 132.952 67.5275C133.28 73.6278 131.896 79.6572 130.011 84.8058C125.533 97.0269 117.995 105.622 109.832 107.806C101.669 109.991 93.0338 105.724 86.7028 96.3934" fill="white" fill-opacity="0.5"/>
<path d="M65.5709 70.479H61.2943C60.8208 71.5469 60.5841 72.2874 60.5841 72.7004C60.5841 73.0026 60.6949 73.194 60.9165 73.2746C61.1483 73.3552 61.4908 73.3955 61.9441 73.3955V74H57.8035V73.3955C58.0453 73.3653 58.2519 73.325 58.4231 73.2746C58.6045 73.2243 58.7606 73.1538 58.8916 73.0631C59.0326 72.9724 59.1535 72.8566 59.2543 72.7155C59.355 72.5644 59.4507 72.3831 59.5414 72.1715L63.5157 62.2129H64.634L68.2457 71.0381C68.4572 71.5519 68.6335 71.9549 68.7746 72.2471C68.9257 72.5392 69.0818 72.7659 69.243 72.9271C69.4143 73.0782 69.6057 73.184 69.8173 73.2444C70.0389 73.3049 70.321 73.3502 70.6635 73.3804V74H64.9513V73.3804C65.4349 73.3603 65.7825 73.3099 65.994 73.2293C66.2056 73.1487 66.3114 72.9875 66.3114 72.7457C66.3114 72.6047 66.2761 72.4234 66.2056 72.2017C66.1351 71.9801 66.0394 71.7081 65.9185 71.3857L65.5709 70.479ZM61.6419 69.5723H65.2385L63.5006 64.9935H63.4402L61.6419 69.5723ZM81.5075 74H70.4458V73.6524L78.047 63.1499H74.2237C73.4782 63.1499 72.9141 63.3362 72.5312 63.709C72.1585 64.0817 71.9016 64.661 71.7605 65.4468H71.1712L71.413 62.3641H81.2053V62.7116L73.6797 73.1538H78.0016C78.5456 73.1538 78.9889 73.1084 79.3314 73.0177C79.6841 72.9271 79.9661 72.7659 80.1777 72.5342C80.3993 72.3025 80.5706 71.9952 80.6915 71.6124C80.8124 71.2295 80.9182 70.7409 81.0088 70.1465H81.704L81.5075 74ZM88.2001 74H82.8052V73.3955C83.1478 73.3855 83.4198 73.3552 83.6213 73.3049C83.8328 73.2444 83.994 73.1386 84.1048 72.9875C84.2156 72.8364 84.2912 72.6248 84.3315 72.3528C84.3718 72.0708 84.3919 71.693 84.3919 71.2195V65.1446C84.3919 64.7215 84.3718 64.3739 84.3315 64.1019C84.3013 63.8198 84.2358 63.5982 84.135 63.437C84.0343 63.2758 83.8882 63.165 83.6968 63.1045C83.5155 63.034 83.2686 62.9887 82.9563 62.9685V62.3641H88.049V62.9685C87.7366 62.9887 87.4848 63.034 87.2934 63.1045C87.112 63.165 86.971 63.2758 86.8702 63.437C86.7695 63.5982 86.699 63.8198 86.6587 64.1019C86.6285 64.3739 86.6133 64.7215 86.6133 65.1446V71.2195C86.6133 71.693 86.6285 72.0708 86.6587 72.3528C86.699 72.6248 86.7745 72.8364 86.8854 72.9875C87.0063 73.1386 87.1674 73.2444 87.3689 73.3049C87.5805 73.3552 87.8575 73.3855 88.2001 73.3955V74ZM95.6953 62.2129C96.602 62.2129 97.4483 62.3691 98.2341 62.6814C99.0199 62.9937 99.6999 63.4219 100.274 63.9659C100.858 64.5099 101.317 65.1496 101.649 65.8851C101.982 66.6205 102.148 67.4164 102.148 68.2727C102.148 69.0887 101.977 69.8544 101.634 70.5697C101.302 71.2849 100.843 71.9096 100.259 72.4435C99.6848 72.9674 99.0047 73.3855 98.2189 73.6978C97.4331 74 96.5919 74.1511 95.6953 74.1511C94.7987 74.1511 93.9575 74 93.1717 73.6978C92.3859 73.3855 91.7008 72.9674 91.1165 72.4435C90.5322 71.9096 90.0738 71.2849 89.7413 70.5697C89.4089 69.8544 89.2427 69.0887 89.2427 68.2727C89.2427 67.4164 89.4089 66.6205 89.7413 65.8851C90.0738 65.1496 90.5271 64.5099 91.1014 63.9659C91.6857 63.4219 92.3708 62.9937 93.1566 62.6814C93.9424 62.3691 94.7886 62.2129 95.6953 62.2129ZM95.6953 73.1689C96.2796 73.1689 96.8085 73.058 97.282 72.8364C97.7555 72.6047 98.1585 72.2823 98.491 71.8693C98.8234 71.4461 99.0753 70.9374 99.2465 70.343C99.4279 69.7385 99.5185 69.0635 99.5185 68.318C99.5185 67.5322 99.4279 66.827 99.2465 66.2024C99.0753 65.5677 98.8234 65.0287 98.491 64.5855C98.1585 64.1321 97.7555 63.7896 97.282 63.5579C96.8085 63.3161 96.2796 63.1952 95.6953 63.1952C95.1009 63.1952 94.567 63.3161 94.0935 63.5579C93.6301 63.7896 93.2321 64.1321 92.8997 64.5855C92.5672 65.0287 92.3103 65.5677 92.129 66.2024C91.9577 66.827 91.8721 67.5322 91.8721 68.318C91.8721 69.0635 91.9577 69.7385 92.129 70.343C92.3103 70.9374 92.5672 71.4461 92.8997 71.8693C93.2321 72.2823 93.6301 72.6047 94.0935 72.8364C94.567 73.058 95.1009 73.1689 95.6953 73.1689ZM113.582 74H103.17V73.3955C103.503 73.3855 103.775 73.3552 103.986 73.3049C104.198 73.2545 104.359 73.1689 104.47 73.048C104.581 72.9271 104.656 72.7558 104.696 72.5342C104.737 72.3125 104.757 72.0254 104.757 71.6728V64.6913C104.757 64.3386 104.737 64.0566 104.696 63.845C104.666 63.6234 104.601 63.4521 104.5 63.3312C104.399 63.2002 104.253 63.1146 104.062 63.0743C103.88 63.0239 103.639 62.9887 103.336 62.9685V62.3641H108.55V62.9685C108.207 62.9786 107.93 63.0088 107.719 63.0592C107.517 63.1096 107.361 63.2002 107.25 63.3312C107.139 63.4622 107.064 63.6435 107.024 63.8752C106.993 64.1069 106.978 64.4142 106.978 64.797V71.1288C106.978 71.5519 107.019 71.8995 107.099 72.1715C107.19 72.4334 107.341 72.64 107.552 72.7911C107.764 72.9321 108.046 73.0329 108.399 73.0933C108.751 73.1437 109.19 73.1689 109.713 73.1689C110.298 73.1689 110.786 73.1336 111.179 73.0631C111.572 72.9926 111.9 72.8616 112.162 72.6702C112.434 72.4687 112.65 72.2017 112.811 71.8693C112.973 71.5368 113.109 71.1036 113.219 70.5697H113.824L113.582 74ZM119.988 74H114.593V73.3955C114.935 73.3855 115.207 73.3552 115.409 73.3049C115.62 73.2444 115.782 73.1386 115.892 72.9875C116.003 72.8364 116.079 72.6248 116.119 72.3528C116.159 72.0708 116.179 71.693 116.179 71.2195V65.1446C116.179 64.7215 116.159 64.3739 116.119 64.1019C116.089 63.8198 116.023 63.5982 115.923 63.437C115.822 63.2758 115.676 63.165 115.484 63.1045C115.303 63.034 115.056 62.9887 114.744 62.9685V62.3641H119.836V62.9685C119.524 62.9887 119.272 63.034 119.081 63.1045C118.9 63.165 118.758 63.2758 118.658 63.437C118.557 63.5982 118.486 63.8198 118.446 64.1019C118.416 64.3739 118.401 64.7215 118.401 65.1446V71.2195C118.401 71.693 118.416 72.0708 118.446 72.3528C118.486 72.6248 118.562 72.8364 118.673 72.9875C118.794 73.1386 118.955 73.2444 119.156 73.3049C119.368 73.3552 119.645 73.3855 119.988 73.3955V74Z" fill="black"/>
<path d="M47.7105 67.8177V65.6403C47.7105 63.1881 49.7052 61.1937 52.157 61.1937C61.4012 61.1934 68.9219 53.673 68.9219 44.4289C68.9219 35.1848 61.4012 27.6641 52.157 27.6641L29.6562 27.6641C28.8388 27.6641 28.1763 28.3265 28.1763 29.1439V76.6969C28.1763 77.5142 28.8388 78.1767 29.6562 78.1767H37.3515C43.0636 78.1767 47.7105 73.5298 47.7105 67.8177ZM52.157 30.6238C59.7695 30.6238 65.9621 36.8165 65.9621 44.4289C65.9621 52.0409 59.7691 58.234 52.157 58.234C48.0731 58.234 44.7508 61.5564 44.7508 65.6403V67.8177C44.7508 71.3909 42.2046 74.3807 38.8313 75.0682V30.6238H52.157Z" fill="black"/>
<rect x="47.6118" y="27.6641" width="1.57852" height="11.9376" fill="black"/>
<path d="M43.1722 40.1938C43.1722 39.322 43.879 38.6152 44.7508 38.6152H52.0514C52.9232 38.6152 53.6299 39.322 53.6299 40.1938V58.3327C53.6299 59.0409 53.1583 59.6624 52.4762 59.853L47.8512 61.1453C47.2804 61.3048 46.847 61.7706 46.729 62.3514L44.4621 73.5115C44.4004 73.8151 44.1335 74.0333 43.8237 74.0333C43.4639 74.0333 43.1722 73.7416 43.1722 73.3818V40.1938Z" fill="black"/>
<circle cx="48.4011" cy="39.6021" r="1.97315" fill="black"/>
<path d="M62.7064 32.8928H64.2849V39.6015H62.7064V32.8928Z" fill="black"/>
<path d="M57.5763 40.1938C57.5763 39.322 58.283 38.6152 59.1548 38.6152H66.4555C67.3273 38.6152 68.034 39.322 68.034 40.1938V47.5849C68.034 47.9715 67.8921 48.3446 67.6353 48.6336L58.766 58.6115C58.6368 58.7569 58.4516 58.84 58.2571 58.84C57.8811 58.84 57.5763 58.5352 57.5763 58.1592V40.1938Z" fill="black"/>
<circle cx="63.4957" cy="39.6021" r="1.97315" fill="black"/>
</svg>
