<svg width="910" height="566" viewBox="0 0 910 566" fill="none" xmlns="http://www.w3.org/2000/svg">
<path d="M375.154 512H305.068V504.147C309.518 504.016 313.051 503.624 315.669 502.969C318.417 502.184 320.512 500.81 321.951 498.846C323.391 496.883 324.373 494.135 324.896 490.601C325.42 486.936 325.681 482.028 325.681 475.877V396.955C325.681 391.458 325.42 386.943 324.896 383.409C324.503 379.745 323.653 376.865 322.344 374.771C321.035 372.677 319.137 371.237 316.651 370.452C314.295 369.536 311.088 368.947 307.031 368.685V360.832H373.191V368.685C369.134 368.947 365.862 369.536 363.375 370.452C361.019 371.237 359.187 372.677 357.878 374.771C356.569 376.865 355.653 379.745 355.13 383.409C354.737 386.943 354.541 391.458 354.541 396.955V475.877C354.541 482.028 354.737 486.936 355.13 490.601C355.653 494.135 356.635 496.883 358.074 498.846C359.645 500.81 361.739 502.184 364.357 502.969C367.105 503.624 370.705 504.016 375.154 504.147V512ZM480.523 466.257H424.963C418.812 480.13 415.736 489.75 415.736 495.116C415.736 499.043 417.176 501.53 420.055 502.577C423.066 503.624 427.516 504.147 433.405 504.147V512H379.613V504.147C382.754 503.754 385.437 503.231 387.662 502.577C390.018 501.922 392.047 501.006 393.748 499.828C395.581 498.65 397.151 497.145 398.46 495.313C399.769 493.349 401.012 490.994 402.19 488.245L453.823 358.869H468.351L515.272 473.521C518.02 480.196 520.31 485.431 522.143 489.227C524.106 493.022 526.135 495.967 528.229 498.061C530.454 500.024 532.941 501.399 535.689 502.184C538.568 502.969 542.233 503.558 546.683 503.951V512H472.473V503.951C478.756 503.689 483.271 503.035 486.02 501.988C488.768 500.941 490.142 498.846 490.142 495.705C490.142 493.873 489.684 491.517 488.768 488.638C487.852 485.758 486.609 482.225 485.038 478.036L480.523 466.257ZM429.479 454.478H476.203L453.626 394.992H452.841L429.479 454.478ZM672.446 513.963L585.475 390.084H584.69V474.503C584.69 481.047 584.886 486.216 585.279 490.012C585.802 493.808 586.784 496.752 588.224 498.846C589.794 500.941 591.888 502.315 594.506 502.969C597.254 503.624 600.788 504.016 605.107 504.147V512H546.8V504.147C551.642 504.016 555.503 503.624 558.383 502.969C561.393 502.184 563.683 500.81 565.254 498.846C566.955 496.883 568.068 494.135 568.591 490.601C569.115 486.936 569.377 482.028 569.377 475.877V396.955C569.377 391.458 569.115 386.943 568.591 383.409C568.068 379.745 567.086 376.865 565.646 374.771C564.207 372.677 562.113 371.237 559.364 370.452C556.747 369.536 553.213 368.947 548.763 368.685V360.832H603.537L682.654 474.306H683.44V398.33C683.44 391.916 683.178 386.812 682.654 383.017C682.262 379.09 681.28 376.08 679.709 373.986C678.27 371.892 676.176 370.517 673.427 369.863C670.81 369.209 667.341 368.816 663.022 368.685V360.832H721.33V368.685C716.487 368.816 712.561 369.274 709.55 370.059C706.671 370.714 704.381 372.023 702.679 373.986C701.109 375.949 700.062 378.763 699.538 382.428C699.014 386.092 698.753 390.935 698.753 396.955V513.963H672.446ZM815.517 358.869C827.296 358.869 838.29 360.898 848.499 364.955C858.707 369.012 867.542 374.575 875.002 381.642C882.593 388.71 888.548 397.021 892.867 406.575C897.187 416.13 899.346 426.469 899.346 437.594C899.346 448.195 897.121 458.142 892.671 467.435C888.352 476.728 882.397 484.842 874.806 491.779C867.346 498.585 858.511 504.016 848.302 508.074C838.094 512 827.165 513.963 815.517 513.963C803.868 513.963 792.94 512 782.731 508.074C772.522 504.016 763.622 498.585 756.031 491.779C748.44 484.842 742.485 476.728 738.166 467.435C733.847 458.142 731.687 448.195 731.687 437.594C731.687 426.469 733.847 416.13 738.166 406.575C742.485 397.021 748.375 388.71 755.835 381.642C763.426 374.575 772.326 369.012 782.535 364.955C792.743 360.898 803.737 358.869 815.517 358.869ZM815.517 501.202C823.108 501.202 829.979 499.763 836.13 496.883C842.282 493.873 847.517 489.685 851.836 484.319C856.155 478.822 859.427 472.212 861.652 464.49C864.008 456.637 865.186 447.868 865.186 438.183C865.186 427.974 864.008 418.813 861.652 410.698C859.427 402.452 856.155 395.45 851.836 389.691C847.517 383.802 842.282 379.352 836.13 376.342C829.979 373.2 823.108 371.63 815.517 371.63C807.795 371.63 800.858 373.2 794.707 376.342C788.686 379.352 783.516 383.802 779.197 389.691C774.878 395.45 771.541 402.452 769.185 410.698C766.96 418.813 765.847 427.974 765.847 438.183C765.847 447.868 766.96 456.637 769.185 464.49C771.541 472.212 774.878 478.822 779.197 484.319C783.516 489.685 788.686 493.873 794.707 496.883C800.858 499.763 807.795 501.202 815.517 501.202Z" fill="black"/>
<path d="M198 407V384.93C198 360.074 218.219 339.859 243.07 339.859C336.77 339.855 413 263.629 413 169.93C413 76.2305 336.77 0 243.07 0L15 0C6.71487 0 2.46167e-05 6.71484 2.46167e-05 15L2.46167e-05 497C2.46167e-05 505.285 6.71487 512 15 512H93C150.898 512 198 464.898 198 407ZM243.07 30C320.23 30 383 92.7695 383 169.93C383 247.086 320.227 309.859 243.07 309.859C201.676 309.859 168 343.535 168 384.93V407C168 443.219 142.191 473.523 108 480.492L108 30L243.07 30Z" fill="black"/>
<rect x="197" width="16" height="121" fill="black"/>
<path d="M152 127C152 118.163 159.163 111 168 111H242C250.837 111 258 118.163 258 127V310.858C258 318.036 253.219 324.336 246.306 326.268L199.426 339.366C193.64 340.983 189.248 345.704 188.052 351.591L165.074 464.711C164.449 467.789 161.743 470 158.603 470C154.956 470 152 467.044 152 463.397V127Z" fill="black"/>
<circle cx="205" cy="121" r="20" fill="black"/>
<path d="M350 53H366V121H350V53Z" fill="black"/>
<path d="M298 127C298 118.163 305.163 111 314 111H388C396.837 111 404 118.163 404 127V201.917C404 205.835 402.562 209.618 399.959 212.547L310.059 313.684C308.749 315.157 306.872 316 304.901 316C301.09 316 298 312.91 298 309.099V127Z" fill="black"/>
<circle cx="358" cy="121" r="20" fill="black"/>
</svg>
