<svg width="32" height="40" viewBox="0 0 32 40" fill="none" xmlns="http://www.w3.org/2000/svg">
<path d="M15.2408 31.3283V29.6294C15.2408 27.7162 16.7971 26.1602 18.7101 26.1602C25.9224 26.1599 31.7902 20.2925 31.7902 13.0801C31.7902 5.86774 25.9224 0 18.7101 0L1.15466 0C0.516918 0 5.33933e-05 0.516866 5.33933e-05 1.1546L5.33933e-05 38.2559C5.33933e-05 38.8936 0.516918 39.4105 1.15466 39.4105H7.1586C11.6153 39.4105 15.2408 35.7849 15.2408 31.3283ZM18.7101 2.30921C24.6494 2.30921 29.481 7.14081 29.481 13.0801C29.481 19.0191 24.6491 23.851 18.7101 23.851C15.5238 23.851 12.9316 26.4431 12.9316 29.6294V31.3283C12.9316 34.1162 10.945 36.4488 8.31321 36.9852L8.31321 2.30921L18.7101 2.30921Z" fill="black"/>
</svg>
